# xmcd CD database file
#
# Track frame offsets:
#	150
#	18010
#	33999
#	52646
#	69196
#	83125
#	103915
#	120489
#	133897
#	155015
#	175137
#	193578
#	212475
#	226573
#	235838
#	255325
#	264689
#	283740
#	299706
#
# Disc length: 4390 seconds
#
# Revision: 1
# Processed by: cddbd v1.5.2PL0 Copyright (c) Steve Scherf et al.
# Submitted via: CDex 1.51
#
DISCID=01112413
DTITLE=Les Indispensables - Electrónica hecha en Francia 07/08
DYEAR=2008
DGENRE=Electronic
TTITLE0=Justice - Dvno
TTITLE1=Wax Tailor - There is Danger
TTITLE2=Stéphane Pompougnac - Hello Mademoiselle
TTITLE3=Yuksek - It Comes
TTITLE4=Joakim - Lonely Hearts
TTITLE5=The Penelopes - Skygazing
TTITLE6=Missill - Kabrake
TTITLE7=Digitalism - Idealistic
TTITLE8=Data - Aerius Light
TTITLE9=Kavinsky - Wayfarer
TTITLE10=Zombie-Zombie - Psychic Harmonia 2
TTITLE11=Turzi - Amadeus
TTITLE12=Jean-Michel Jarre - Vintage
TTITLE13=Para One - Piste Bleue
TTITLE14=Yelle - Je Veux Te Voir
TTITLE15=Mr Oizo - Chivers
TTITLE16=High Tone - Freakency
TTITLE17=Birdy Nam Nam - Escape
TTITLE18=Laurent Garnier and Friends - First Reactions
EXTD=YEAR: 2008
EXTT0=
EXTT1=
EXTT2=
EXTT3=
EXTT4=
EXTT5=
EXTT6=
EXTT7=
EXTT8=
EXTT9=
EXTT10=
EXTT11=
EXTT12=
EXTT13=
EXTT14=
EXTT15=
EXTT16=
EXTT17=
EXTT18=
PLAYORDER=
